<svg width="103" height="70" viewBox="0 0 103 70" fill="none" xmlns="http://www.w3.org/2000/svg">
<path d="M81.0791 47.6254C83.7057 48.2791 84.4968 41.4513 83.9934 36.9968C83.4902 32.5417 81.6197 28.0656 78.9331 28.6335C76.2464 29.201 72.4883 30.418 72.4883 30.418C72.4883 30.418 71.2497 38.1504 72.3351 41.3287C73.4202 44.5076 78.9506 47.0957 81.0791 47.6254Z" fill="#FBB872"/>
<path d="M81.4706 45.2481C82.2167 45.2297 82.7181 40.0235 82.0382 36.9314C81.3588 33.8392 80.2158 30.7332 78.1916 31.2255C76.1677 31.7183 73.2408 32.4012 73.2408 32.4012L74.8003 44.4505L81.4706 45.2481Z" fill="#F8A35E"/>
<path d="M92.1565 20.7553C92.1565 20.7553 88.347 20.2986 85.7581 12.0349C83.1691 3.77125 86.037 1.22255 86.037 1.22255C79.5808 6.36212 53.4958 15.2675 53.4958 15.2675C53.4958 15.2675 26.9929 22.8377 18.7583 22.3007C18.7583 22.3007 15.7232 24.9017 18.3122 33.1654C20.9012 41.4291 24.8778 41.8334 24.8778 41.8334C31.3341 36.6943 57.4186 27.7886 57.4186 27.7886C57.4186 27.7886 83.922 20.2188 92.1565 20.7553Z" fill="#FFE7B4"/>
<path d="M92.1565 20.7553C94.8593 20.8981 94.3392 14.0442 92.999 9.76635C91.6588 5.48852 88.9724 1.4489 86.4423 2.51634C83.9124 3.58425 80.4538 5.49263 80.4538 5.49263C80.4538 5.49263 80.7063 13.3199 82.3755 16.2345C84.0449 19.1484 89.9659 20.6397 92.1565 20.7553Z" fill="#FBB872"/>
<path d="M24.8778 41.8334C31.3341 36.6943 57.419 27.7885 57.419 27.7885C57.419 27.7885 83.922 20.2188 92.1565 20.7553C92.1565 20.7553 88.347 20.2986 85.7581 12.0349C83.5224 4.89887 85.3547 2.02704 85.8972 1.37533C81.6947 5.78849 86.3807 18.2759 83.2344 18.4634C80.0521 18.6522 74.4584 20.0642 63.9322 22.6775C53.406 25.2907 55.0021 16.6439 51.8721 19.6308C48.7421 22.6178 52.4673 25.9857 49.7052 27.5258C46.9432 29.0663 25.032 38.6792 20.799 32.6606C16.5666 26.6417 18.7583 22.3007 18.7583 22.3007C18.7583 22.3007 15.7232 24.9017 18.3122 33.1654C20.9012 41.4291 24.8778 41.8334 24.8778 41.8334Z" fill="#FFD898"/>
<path d="M55.8329 21.546C54.9115 18.6052 54.9232 14.7631 54.9239 14.7222C54.9242 14.6449 54.987 14.5825 55.0643 14.5828C55.1422 14.5834 55.2038 14.647 55.2038 14.7237C55.203 14.7677 55.1885 19.1149 56.3023 22.0491C57.4135 24.9852 59.3479 27.1587 59.367 27.1799C59.419 27.2376 59.4134 27.3264 59.356 27.3778C59.2992 27.4295 59.2107 27.4249 59.1587 27.3671C59.1393 27.345 57.1706 25.1354 56.04 22.149C55.9663 21.9537 55.8973 21.7516 55.8329 21.546Z" fill="#5A4A42"/>
<path d="M50.7458 16.0367C50.7314 15.9906 50.7416 15.9384 50.776 15.9C50.828 15.843 50.9165 15.8393 50.9735 15.8913C51.0009 15.9156 53.6948 18.41 54.9686 22.4756C56.2466 26.555 55.4595 28.4909 55.4251 28.571C55.3947 28.642 55.3129 28.6755 55.2419 28.6451C55.1706 28.6158 55.1361 28.5338 55.1673 28.462C55.1755 28.4433 55.9445 26.526 54.7017 22.5592C53.4515 18.5686 50.8116 16.1219 50.7848 16.098C50.7658 16.0805 50.7529 16.0595 50.7458 16.0367Z" fill="#5A4A42"/>
<path d="M52.4872 15.4909C52.4685 15.431 52.4922 15.3636 52.5477 15.3296C52.6138 15.2891 52.7001 15.31 52.7401 15.3762C52.7552 15.4012 54.2734 17.9136 55.5611 22.0238C56.8479 26.1312 57.04 27.8777 57.048 27.9497C57.0559 28.0265 57.0003 28.0955 56.9231 28.1036C56.8463 28.1114 56.7787 28.057 56.7694 27.9791C56.7675 27.9615 56.5702 26.1817 55.2938 22.1076C54.0171 18.0325 52.5161 15.5465 52.5016 15.5218C52.4948 15.5119 52.4905 15.5013 52.4872 15.4909Z" fill="#5A4A42"/>
<path d="M60.7915 19.5439C60.3004 18.1529 58.6513 17.8051 57.7759 17.1461C55.9884 15.8009 54.4198 17.564 53.606 17.9488C52.6487 18.4015 51.8116 18.1877 51.313 19.3502C50.8147 20.5126 50.9708 21.7046 50.7962 23.3224C50.6397 24.7735 52.2018 25.9734 53.5035 26.5718C54.8058 27.1706 55.3731 28.1791 57.0176 27.2321C58.6622 26.2857 59.3189 25.972 60.2515 25.3926C61.184 24.8126 60.8351 23.1247 61.0595 22.1201C61.2837 21.115 61.1113 20.45 60.7915 19.5439Z" fill="#EC1C24"/>
<path d="M56.9691 25.9301C54.9166 26.5731 52.7318 25.4307 52.0887 23.3782C51.4457 21.3257 52.588 19.1403 54.6405 18.4973C56.693 17.8543 58.878 18.9972 59.521 21.0497C60.1641 23.1022 59.0216 25.2871 56.9691 25.9301Z" fill="#C5161D"/>
<path d="M57.3975 25.5197C57.3975 25.5197 54.2532 26.8917 52.4456 23.788C52.4456 23.788 53.9713 26.2099 57.3975 25.5197Z" fill="#EC1C24"/>
<path d="M54.5195 17.6148C54.5195 17.6148 55.6499 16.7096 56.713 16.9276C57.7756 17.1458 58.1066 17.7778 58.9565 18.0459C58.9565 18.0459 58.1978 17.9208 57.3189 17.4088C56.44 16.8969 55.3046 17.177 54.5195 17.6148Z" fill="#EF5038"/>
<path d="M81.079 47.6252C81.079 47.6252 77.4256 46.4533 76.4534 37.8484C75.4807 29.2436 78.7809 27.2858 78.7809 27.2858C71.466 31.1057 44.1648 34.8946 44.1648 34.8946C44.1648 34.8946 16.7059 37.2928 8.72323 35.2019C8.72323 35.2019 5.24929 37.1792 6.22193 45.784C7.1941 54.3889 11.0213 55.5413 11.0213 55.5413C18.3364 51.7219 45.6379 47.9324 45.6379 47.9324C45.6379 47.9324 73.0963 45.5343 81.079 47.6252Z" fill="#FFE7B4"/>
<path d="M45.2665 41.5025C44.9208 38.4403 45.6621 34.6704 45.6698 34.6299C45.6851 34.5542 45.7589 34.505 45.8345 34.5199C45.9108 34.5357 45.9595 34.6096 45.9446 34.6851C45.9355 34.7276 45.096 38.9928 45.6317 42.0857C46.1651 45.1794 47.6515 47.6804 47.6665 47.7049C47.7062 47.7717 47.6841 47.8579 47.6183 47.8973C47.5521 47.9373 47.4661 47.9158 47.4261 47.8496C47.4113 47.824 45.8981 45.2808 45.3553 42.1337C45.32 41.9279 45.2908 41.7165 45.2665 41.5025Z" fill="#5A4A42"/>
<path d="M41.3186 35.1274C41.3128 35.0791 41.3329 35.0301 41.3738 34.999C41.436 34.9529 41.5239 34.9655 41.5699 35.0277C41.5916 35.0569 43.7632 38.0175 44.2418 42.2513C44.7217 46.4989 43.581 48.25 43.5321 48.3221C43.4886 48.3863 43.4018 48.4036 43.3382 48.3604C43.2733 48.3182 43.2554 48.231 43.2997 48.166C43.3112 48.1494 44.4301 46.4135 43.9634 42.2828C43.4941 38.1273 41.367 35.2238 41.3453 35.1946C41.3301 35.1743 41.3213 35.151 41.3186 35.1274Z" fill="#5A4A42"/>
<path d="M43.1319 34.9223C43.1248 34.8598 43.1607 34.798 43.2219 34.7752C43.2943 34.7483 43.3751 34.785 43.402 34.8574C43.4122 34.885 44.425 37.6402 44.9087 41.92C45.3921 46.1972 45.2492 47.948 45.2432 48.0203C45.2366 48.0974 45.1685 48.1547 45.0914 48.1481C45.0147 48.1414 44.9588 48.0744 44.964 47.9961C44.9654 47.979 45.11 46.1938 44.6307 41.9513C44.1512 37.7083 43.1496 34.9824 43.1402 34.9556C43.1357 34.9445 43.1332 34.9333 43.1319 34.9223Z" fill="#5A4A42"/>
<path d="M50.5151 40.4787C50.2974 39.0198 48.7444 38.365 48.0094 37.5515C46.5106 35.8912 44.6354 37.3249 43.7632 37.5481C42.7374 37.8105 41.9565 37.4415 41.2459 38.4884C40.5358 39.5352 40.4627 40.7349 39.9843 42.2899C39.5547 43.6847 40.861 45.1598 42.0251 45.9948C43.1897 46.8296 43.5555 47.9272 45.3498 47.3104C47.144 46.6935 47.8484 46.5103 48.8741 46.1181C49.9 45.7263 49.8778 44.0028 50.2889 43.0585C50.6998 42.1148 50.657 41.4291 50.5151 40.4787Z" fill="#EC1C24"/>
<path d="M45.5493 46.0226C43.4122 46.264 41.4839 44.7273 41.2424 42.5902C41.0008 40.4526 42.5375 38.5243 44.6746 38.2828C46.8122 38.0412 48.7406 39.5784 48.9821 41.7155C49.2231 43.8528 47.6864 45.7811 45.5493 46.0226Z" fill="#C5161D"/>
<path d="M44.1366 38.6105C44.1366 38.6105 47.4841 37.8605 48.6694 41.251C48.6694 41.251 47.6315 38.5839 44.1366 38.6105Z" fill="#A40D12"/>
<path d="M46.0479 45.701C46.0479 45.701 42.7004 46.451 41.5151 43.0605C41.5151 43.0605 42.553 45.7276 46.0479 45.701Z" fill="#EC1C24"/>
<path d="M44.7237 37.3934C44.7237 37.3934 46.0057 36.7191 47.0078 37.1351C48.0096 37.5517 48.2146 38.2346 48.998 38.6597C48.998 38.6597 48.2771 38.3923 47.5115 37.7229C46.7454 37.0531 45.5774 37.1129 44.7237 37.3934Z" fill="#EF5038"/>
</svg>
