<svg width="77" height="117" viewBox="0 0 77 117" fill="none" xmlns="http://www.w3.org/2000/svg">
<mask id="mask0_33_2080" style="mask-type:luminance" maskUnits="userSpaceOnUse" x="12" y="112" width="65" height="5">
<path d="M12.446 112.11H76.4742V116.097H12.446V112.11Z" fill="white"/>
</mask>
<g mask="url(#mask0_33_2080)">
<g opacity="0.0899963">
<path d="M72.0934 113.273C73.0263 113.326 73.9763 113.39 74.82 113.578C75.7127 113.777 76.4705 114.149 76.4736 114.546C76.4869 116.269 70.2524 115.722 69.2542 115.747C66.1406 115.825 63.027 115.891 59.9128 115.943C53.6849 116.047 47.456 116.098 41.2271 116.096C34.438 116.094 27.6484 116.029 20.86 115.901C18.7901 115.863 16.7031 115.816 14.6838 115.357C13.9918 115.201 13.2644 114.966 12.8272 114.407C10.9062 111.955 16.8083 112.159 17.8743 112.132C20.5733 112.064 23.2717 112.172 25.9707 112.151C31.1091 112.112 36.2611 112.128 41.4201 112.2C51.5815 112.34 61.7695 112.695 71.9281 113.263C71.9833 113.266 72.0382 113.269 72.0934 113.273Z" fill="#1C2229"/>
</g>
</g>
<path d="M60.9264 106.601L29.1412 112.866C23.9882 113.881 18.9875 110.527 17.9721 105.374L0.70699 17.7721C-0.308381 12.6194 3.04531 7.61905 8.19837 6.60333L39.9835 0.338791C45.1366 -0.676582 50.1369 2.67712 51.1526 7.83017L68.4177 95.4324C69.4286 100.564 66.0577 105.59 60.9264 106.601Z" fill="#292929"/>
<path d="M60.4761 104.998L28.949 111.211C24.5998 112.068 20.3796 109.238 19.5226 104.889L2.26514 17.3246C1.40776 12.9754 4.23856 8.75491 8.58736 7.89788L40.1149 1.68436C44.4637 0.827332 48.6846 3.65813 49.5416 8.00693L66.799 95.5711C67.6522 99.9024 64.8075 104.145 60.4761 104.998Z" fill="#F2F6F9"/>
<path d="M11.8213 6.20695L12.4365 8.21043C12.8384 9.52045 14.3186 10.2925 15.8496 9.99091L34.1902 6.37647C35.7208 6.07483 36.7977 4.79871 36.6725 3.43381L36.4813 1.3468L11.8213 6.20695Z" fill="#292929"/>
<mask id="mask1_33_2080" style="mask-type:luminance" maskUnits="userSpaceOnUse" x="2" y="1" width="65" height="111">
<path d="M40.1152 1.68448L8.5877 7.89799C4.23856 8.75503 1.40776 12.9752 2.26514 17.3247L19.5226 104.888C20.3796 109.238 24.6002 112.068 28.949 111.211L60.4761 104.998C64.8075 104.144 67.6526 99.9022 66.799 95.5712L49.5416 8.00704C48.7877 4.18183 45.4319 1.53139 41.6759 1.53139C41.161 1.53139 40.6392 1.58102 40.1152 1.68448Z" fill="white"/>
</mask>
<g mask="url(#mask1_33_2080)">
<path d="M52.8727 23.8119L5.03877 33.2393L3.1405 23.6081L50.9744 14.181L52.8727 23.8119Z" fill="#E8324B"/>
<path d="M78.9189 95.051L65.7564 97.6451L63.099 84.1615L76.2614 81.5677L78.9189 95.051Z" fill="#B8B8B8"/>
</g>
<path d="M24.4581 47.7546L11.2957 50.3488L8.70154 37.1863L21.864 34.5922L24.4581 47.7546Z" fill="#B8B8B8"/>
<path d="M27.0521 60.9169L13.8897 63.5111L11.549 51.6328L24.7114 49.0387L27.0521 60.9169Z" fill="#B8B8B8"/>
<path d="M30.2644 76.6254L17.102 79.2196L14.2548 64.773L27.4172 62.1788L30.2644 76.6254Z" fill="#B8B8B8"/>
<path d="M35.5793 103.592L22.4168 106.187L19.7594 92.703L32.9215 90.1092L35.5793 103.592Z" fill="#B8B8B8"/>
<path d="M46.4944 101.441L36.8633 103.339L34.2062 89.8557L43.8366 87.9578L46.4944 101.441Z" fill="#B8B8B8"/>
<path d="M64.4721 97.898L47.7784 101.188L45.1213 87.7048L61.8147 84.4147L64.4721 97.898Z" fill="#B8B8B8"/>
<path d="M18.4807 84.4509L60.8435 76.1018" stroke="#B8B8B8" stroke-width="1.04858" stroke-miterlimit="10"/>
<path d="M17.9447 81.7349L60.3075 73.3858" stroke="#B8B8B8" stroke-width="1.04858" stroke-miterlimit="10"/>
<path d="M23.6119 36.1788L51.863 30.6109" stroke="#B8B8B8" stroke-width="1.04858" stroke-miterlimit="10"/>
<path d="M24.1481 38.8947L52.3992 33.3267" stroke="#B8B8B8" stroke-width="1.04858" stroke-miterlimit="10"/>
<path d="M24.6843 41.6106L52.9351 36.0427" stroke="#B8B8B8" stroke-width="1.04858" stroke-miterlimit="10"/>
<path d="M25.2203 44.3264L50.0765 39.4289" stroke="#B8B8B8" stroke-width="1.04858" stroke-miterlimit="10"/>
<path d="M26.3599 50.0977L54.6106 44.5297" stroke="#B8B8B8" stroke-width="1.04858" stroke-miterlimit="10"/>
<path d="M26.8958 52.8135L51.7519 47.9159" stroke="#B8B8B8" stroke-width="1.04858" stroke-miterlimit="10"/>
<path d="M29.3756 65.3744L57.6267 59.8065" stroke="#B8B8B8" stroke-width="1.04858" stroke-miterlimit="10"/>
<path d="M29.9119 68.0902L58.1629 62.5223" stroke="#B8B8B8" stroke-width="1.04858" stroke-miterlimit="10"/>
<path d="M30.5149 71.1455L48.5812 67.5884" stroke="#B8B8B8" stroke-width="1.04858" stroke-miterlimit="10"/>
<path d="M18.892 86.5374L51.6271 80.0858" stroke="#B8B8B8" stroke-width="1.04858" stroke-miterlimit="10"/>
<path d="M19.335 88.7848L52.0698 82.3333" stroke="#B8B8B8" stroke-width="1.04858" stroke-miterlimit="10"/>
<path d="M12.6612 30.3697L11.5855 30.5817L11.1526 28.385L9.13694 28.7823L9.56987 30.979L8.49069 31.1916L7.48761 26.1021L8.5668 25.8894L8.95993 27.8841L10.9756 27.4869L10.5824 25.4921L11.6581 25.2801L12.6612 30.3697ZM18.066 26.6536C18.1433 27.0459 18.165 27.4129 18.1311 27.7547C18.0967 28.0942 18.0026 28.3996 17.8488 28.671C17.6972 28.942 17.4818 29.1701 17.2025 29.3553C16.9227 29.5383 16.5751 29.6707 16.1597 29.7525C15.7442 29.8344 15.3724 29.8438 15.0441 29.7807C14.7154 29.7153 14.4284 29.5862 14.183 29.3935C13.94 29.2003 13.738 28.952 13.5769 28.6486C13.4159 28.3452 13.2965 27.9963 13.2187 27.6017C13.1149 27.0749 13.1104 26.5996 13.2053 26.1759C13.3021 25.7493 13.5091 25.3927 13.8262 25.106C14.1434 24.8192 14.5794 24.6212 15.134 24.5119C15.6864 24.403 16.1614 24.4215 16.559 24.5674C16.959 24.7128 17.2835 24.9647 17.5325 25.323C17.7839 25.681 17.9617 26.1245 18.066 26.6536ZM14.3515 27.3857C14.4215 27.7408 14.5259 28.0385 14.6649 28.2787C14.8057 28.5161 14.985 28.6857 15.2028 28.7875C15.4201 28.8869 15.6796 28.9069 15.9813 28.8474C16.2876 28.787 16.5225 28.6696 16.6858 28.4952C16.8486 28.3184 16.9479 28.094 16.9834 27.8217C17.0208 27.5468 17.0046 27.2317 16.9346 26.8766C16.8294 26.3428 16.6468 25.9424 16.3868 25.6754C16.1268 25.4084 15.7683 25.32 15.3111 25.4101C15.007 25.47 14.7724 25.5885 14.6072 25.7658C14.4439 25.9402 14.3424 26.1651 14.3026 26.4406C14.2648 26.7133 14.281 27.0283 14.3515 27.3857ZM21.5871 28.6105L20.5079 28.8232L19.6819 24.6318L18.2998 24.9042L18.1228 24.006L21.9661 23.2486L22.1431 24.1468L20.7611 24.4191L21.5871 28.6105ZM30.1196 26.9289L28.748 27.1992L25.7751 23.7854L25.7438 23.7915C25.7847 23.9498 25.8246 24.1095 25.8635 24.2706C25.9025 24.4317 25.9415 24.5928 25.9805 24.7539C26.019 24.9126 26.0578 25.0726 26.0967 25.2336L26.5688 27.6287L25.6045 27.8188L24.6014 22.7292L25.9626 22.461L28.9244 25.8372L28.9488 25.8324C28.9131 25.6755 28.8764 25.52 28.8388 25.3659C28.8012 25.2118 28.7636 25.0577 28.7259 24.9035C28.6907 24.749 28.6554 24.5944 28.6201 24.4398L28.1453 22.0308L29.1166 21.8393L30.1196 26.9289ZM34.3354 26.0981L31.4042 26.6758L30.4011 21.5862L33.3324 21.0085L33.5066 21.8927L31.6546 22.2577L31.8748 23.3752L33.5981 23.0356L33.7723 23.9198L32.0491 24.2594L32.3078 25.5719L34.1598 25.2069L34.3354 26.0981ZM40.6499 19.5663L40.358 24.9111L39.1291 25.1533L37.9129 22.6156C37.8889 22.5672 37.855 22.4932 37.8112 22.3933C37.7674 22.2934 37.7206 22.1845 37.6709 22.0665C37.6206 21.9462 37.5743 21.8336 37.532 21.7287C37.4914 21.6209 37.4613 21.5352 37.4415 21.4716C37.4474 21.538 37.4506 21.6278 37.4512 21.741C37.4541 21.8537 37.455 21.9741 37.4537 22.1021C37.4547 22.2297 37.4541 22.3491 37.452 22.4605C37.4498 22.5718 37.4472 22.6567 37.4443 22.7151L37.284 25.5169L36.0586 25.7584L33.7571 20.9248L34.8188 20.7155L36.0173 23.3653C36.0524 23.4451 36.0929 23.5408 36.139 23.6523C36.1874 23.7633 36.2358 23.8803 36.2842 24.0034C36.3344 24.1237 36.3804 24.2412 36.4223 24.3559C36.4661 24.4678 36.5011 24.5658 36.5273 24.6499C36.5215 24.5594 36.5165 24.4543 36.5122 24.3346C36.5074 24.2126 36.5036 24.0892 36.5007 23.9644C36.4996 23.8368 36.5004 23.7185 36.5031 23.6095C36.5057 23.5005 36.5099 23.4116 36.5156 23.343L36.6952 20.3457L37.7152 20.1447L39.0187 22.8497C39.0473 22.9091 39.0825 22.9902 39.1244 23.0928C39.1682 23.1927 39.2139 23.3019 39.2613 23.4203C39.3088 23.5387 39.3534 23.6553 39.3953 23.77C39.4391 23.8819 39.4741 23.9799 39.5003 24.0639C39.4936 23.9447 39.488 23.7999 39.4834 23.6297C39.4806 23.4566 39.4793 23.2845 39.4793 23.1133C39.4816 22.9417 39.4846 22.7976 39.4881 22.6812L39.5881 19.7756L40.6499 19.5663ZM45.0193 22.5242C45.0788 22.8259 45.0573 23.1025 44.955 23.3541C44.8527 23.6058 44.6731 23.8196 44.416 23.9956C44.1613 24.1712 43.8344 24.2983 43.4352 24.377C43.2588 24.4117 43.0836 24.4342 42.9096 24.4444C42.7379 24.4541 42.57 24.4523 42.4058 24.4388C42.2435 24.4226 42.0861 24.3945 41.9336 24.3547L41.736 23.3521C41.9984 23.4113 42.268 23.4582 42.5449 23.4928C42.8217 23.5275 43.0878 23.5196 43.3431 23.4693C43.5195 23.4345 43.6565 23.3834 43.7541 23.316C43.854 23.2481 43.9203 23.1687 43.9531 23.0779C43.9858 22.987 43.9919 22.8894 43.9713 22.7849C43.9461 22.6573 43.8817 22.5567 43.778 22.4831C43.6743 22.4095 43.5392 22.3481 43.3728 22.2989C43.2087 22.2493 43.0238 22.1978 42.818 22.1443C42.6886 22.1119 42.5465 22.07 42.3917 22.0185C42.2365 21.9648 42.0848 21.8922 41.9366 21.8009C41.7884 21.7095 41.6574 21.5895 41.5437 21.4407C41.4319 21.2891 41.3531 21.0973 41.3073 20.8652C41.2474 20.5612 41.2658 20.2876 41.3625 20.0443C41.4592 19.801 41.6252 19.5971 41.8604 19.4326C42.0975 19.2654 42.3924 19.147 42.7451 19.0774C43.0097 19.0253 43.2677 19.007 43.5191 19.0225C43.7724 19.0353 44.0416 19.0739 44.3267 19.1382L44.1439 20.0458C43.8907 19.9969 43.6663 19.9652 43.4706 19.9507C43.2744 19.9339 43.08 19.9445 42.8873 19.9824C42.7527 20.009 42.6422 20.0537 42.5557 20.1165C42.4688 20.177 42.4088 20.2516 42.3756 20.3401C42.3419 20.4263 42.3352 20.5204 42.3553 20.6225C42.3791 20.7432 42.434 20.8385 42.5201 20.9083C42.6081 20.9754 42.7304 21.0332 42.887 21.0819C43.046 21.1301 43.2423 21.1843 43.476 21.2443C43.7602 21.3161 44.0072 21.4012 44.2171 21.4997C44.4288 21.5954 44.6024 21.7239 44.7379 21.8853C44.8729 22.0443 44.9667 22.2573 45.0193 22.5242ZM46.6953 21.9081L45.8459 22.0756L44.998 18.7094L46.2025 18.472L46.6953 21.9081ZM45.889 23.3039C45.846 23.0857 45.875 22.9209 45.976 22.8094C46.0793 22.6974 46.2157 22.6247 46.3851 22.5913C46.5499 22.5588 46.7001 22.575 46.8359 22.6399C46.9739 22.7043 47.0645 22.8456 47.1075 23.0637C47.1486 23.2726 47.118 23.4354 47.0156 23.552C46.9156 23.6681 46.7831 23.7425 46.6184 23.7749C46.4489 23.8083 46.2947 23.7905 46.1558 23.7214C46.0191 23.6519 45.9302 23.5128 45.889 23.3039ZM48.7353 21.5061L47.8859 21.6735L47.038 18.3073L48.2425 18.0699L48.7353 21.5061ZM47.929 22.9018C47.886 22.6837 47.915 22.5188 48.016 22.4073C48.1193 22.2953 48.2557 22.2226 48.4251 22.1893C48.5899 22.1568 48.7401 22.173 48.8759 22.2378C49.014 22.3022 49.1045 22.4435 49.1475 22.6617C49.1886 22.8706 49.158 23.0333 49.0556 23.1499C48.9556 23.2661 48.8232 23.3404 48.6584 23.3729C48.489 23.4063 48.3348 23.3884 48.1958 23.3194C48.0591 23.2499 47.9702 23.1107 47.929 22.9018Z" fill="#F2F6F9"/>
</svg>
