<svg width="95" height="81" viewBox="0 0 95 81" fill="none" xmlns="http://www.w3.org/2000/svg">
<path d="M61.5264 70.2646H11.6893C9.70645 70.2646 8.09924 68.6574 8.09924 66.6745V3.72574L4.52112 0.146759H57.6949C59.8113 0.146759 61.5264 1.86179 61.5264 3.9782V70.2646Z" fill="white"/>
<path d="M8.1638 7.03955L8.09961 3.72587C8.09961 1.74896 6.49754 0.146889 4.52063 0.146889C2.54457 0.146889 0.942505 1.74896 0.942505 3.72587L1.00583 7.03955H8.1638Z" fill="#6C9BAA"/>
<path d="M15.2573 59.1818V66.6864C15.2573 68.6599 13.6578 70.2602 11.6843 70.2637C11.686 70.2637 11.6877 70.2645 11.6895 70.2645H65.1054C67.0815 70.2645 68.6836 68.6616 68.6836 66.6864V59.1818H15.2573Z" fill="#6C9BAA"/>
<path d="M12.7325 16.1024C12.7325 15.778 12.9953 15.5161 13.3188 15.5161H56.0509C56.3744 15.5161 56.6362 15.778 56.6362 16.1024C56.6362 16.4259 56.3744 16.6886 56.0509 16.6886H13.3188C12.9953 16.6886 12.7325 16.4259 12.7325 16.1024Z" fill="#B4D7DC"/>
<path d="M12.7325 25.3491C12.7325 25.0256 12.9953 24.7628 13.3188 24.7628H56.0509C56.3744 24.7628 56.6362 25.0256 56.6362 25.3491C56.6362 25.6726 56.3744 25.9353 56.0509 25.9353H13.3188C12.9953 25.9353 12.7325 25.6726 12.7325 25.3491Z" fill="#B4D7DC"/>
<path d="M12.7325 34.5957C12.7325 34.2722 12.9953 34.0094 13.3188 34.0094H56.0509C56.3744 34.0094 56.6362 34.2722 56.6362 34.5957C56.6362 34.9192 56.3744 35.1819 56.0509 35.1819H13.3188C12.9953 35.1819 12.7325 34.9192 12.7325 34.5957Z" fill="#B4D7DC"/>
<path d="M12.7325 43.8426C12.7325 43.5191 12.9953 43.2564 13.3188 43.2564H56.0509C56.3744 43.2564 56.6362 43.5191 56.6362 43.8426C56.6362 44.167 56.3744 44.4288 56.0509 44.4288H13.3188C12.9953 44.4288 12.7325 44.167 12.7325 43.8426Z" fill="#B4D7DC"/>
<path d="M56.0505 53.6759H37.2288C36.9053 53.6759 36.6434 53.4132 36.6434 53.0897C36.6434 52.7662 36.9053 52.5043 37.2288 52.5043H56.0505C56.374 52.5043 56.6368 52.7662 56.6368 53.0897C56.6368 53.4132 56.374 53.6759 56.0505 53.6759Z" fill="#B4D7DC"/>
<path d="M45.3908 11.179H26.569C26.2455 11.179 25.9836 10.9162 25.9836 10.5927C25.9836 10.2701 26.2455 10.0074 26.569 10.0074H45.3908C45.7142 10.0074 45.977 10.2701 45.977 10.5927C45.977 10.9162 45.7142 11.179 45.3908 11.179Z" fill="#B4D7DC"/>
<path d="M51.6934 39.8049H13.3414C13.0179 39.8049 12.7551 39.5422 12.7551 39.2187C12.7551 38.8961 13.0179 38.6333 13.3414 38.6333H51.6934C52.0169 38.6333 52.2797 38.8961 52.2797 39.2187C52.2797 39.5422 52.0169 39.8049 51.6934 39.8049Z" fill="#B4D7DC"/>
<path d="M41.3882 30.5583H13.3409C13.0174 30.5583 12.7546 30.2956 12.7546 29.9721V29.9507C12.7546 29.6272 13.0174 29.3645 13.3409 29.3645H41.3882C41.7117 29.3645 41.9744 29.6272 41.9744 29.9507V29.9721C41.9744 30.2956 41.7117 30.5583 41.3882 30.5583Z" fill="#B4D7DC"/>
<path d="M48.7885 21.3115H13.341C13.0175 21.3115 12.7556 21.0488 12.7556 20.7253C12.7556 20.4027 13.0175 20.1399 13.341 20.1399H48.7885C49.112 20.1399 49.3747 20.4027 49.3747 20.7253C49.3747 21.0488 49.112 21.3115 48.7885 21.3115Z" fill="#B4D7DC"/>
<path d="M44.7877 80.1575L40.8921 76.3645L37.1659 80.1575V66.0504H44.7877V80.1575Z" fill="#C8462D"/>
<path d="M44.7877 65.5561H37.1659V67.9892C37.9079 69.3388 39.3268 70.2648 40.9768 70.2648C42.6268 70.2648 44.0449 69.3388 44.7877 67.9892V65.5561Z" fill="#872D1E"/>
<path d="M45.343 63.9088C45.343 66.3196 43.3883 68.276 40.9767 68.276C38.565 68.276 36.6095 66.3196 36.6095 63.9088C36.6095 61.4972 38.565 59.5416 40.9767 59.5416C43.3883 59.5416 45.343 61.4972 45.343 63.9088Z" fill="#FAD72A"/>
<path d="M45.0437 63.9089C45.0437 66.1554 43.2226 67.9757 40.9769 67.9757C38.7305 67.9757 36.9093 66.1554 36.9093 63.9089C36.9093 61.6624 38.7305 59.8413 40.9769 59.8413C43.2226 59.8413 45.0437 61.6624 45.0437 63.9089Z" fill="#EA9D00"/>
<path d="M44.5937 63.909C44.5937 65.9064 42.9746 67.5265 40.9763 67.5265C38.9788 67.5265 37.3596 65.9064 37.3596 63.909C37.3596 61.9115 38.9788 60.2915 40.9763 60.2915C42.9746 60.2915 44.5937 61.9115 44.5937 63.909Z" fill="#FAD72A"/>
<path d="M40.4426 63.0354C40.0575 63.4838 39.1152 62.3927 38.7943 62.907C38.4734 63.4205 37.7673 63.4975 38.4092 63.9092C39.0511 64.3191 39.8392 64.4843 40.1841 64.7231C40.5282 64.9618 40.1841 65.5558 40.1841 65.5558C40.1841 65.5558 39.6287 66.1813 40.464 66.2455C41.2984 66.3097 41.5551 66.9524 41.6844 66.2455C41.8127 65.5395 41.2342 64.9986 41.6844 64.7231C42.1337 64.4475 43.0323 64.9618 43.289 64.4475C43.5457 63.934 43.4816 64.2549 43.289 63.5489C43.0964 62.842 42.1551 62.9712 41.5774 62.907C40.9989 62.842 41.8769 61.4941 41.8127 61.1723C41.7477 60.8514 40.3228 60.9301 40.1841 61.1158C39.8196 61.6002 40.8277 62.5861 40.4426 63.0354Z" fill="#FAD72A"/>
<path d="M0.941895 59.5422H5.52388V20.3968H0.941895V59.5422Z" fill="#50555A"/>
<path d="M0.942261 60.0561L2.78396 66.2085H3.68341L5.52425 60.0561H0.942261Z" fill="#FAD72A"/>
<path d="M5.52425 19.3693V18.979C5.52425 17.7133 4.49813 16.688 3.23325 16.688C1.96752 16.688 0.942261 17.7133 0.942261 18.979V19.3693H5.52425Z" fill="#50555A"/>
<path d="M5.52388 48.8567H0.941895V47.4506H5.52388V48.8567Z" fill="#373C41"/>
<path d="M5.52388 60.0557H0.941895V59.353H5.52388V60.0557Z" fill="#EA9D00"/>
<path d="M5.52388 48.344H0.941895V46.9379H5.52388V48.344Z" fill="#FAD72A"/>
<path d="M5.52388 20.14H0.941895V18.7339H5.52388V20.14Z" fill="#FAD72A"/>
<path d="M1.5155 32.4847V19.9994C1.5155 19.6887 1.76711 19.4371 2.07777 19.4371C2.38842 19.4371 2.64003 19.6887 2.64003 19.9994V32.4847C2.64003 32.7945 2.38842 33.0461 2.07777 33.0461C1.76711 33.0461 1.5155 32.7945 1.5155 32.4847Z" fill="#FAD72A"/>
<path d="M44.8111 72.5506C44.8111 73.0772 55.8351 73.5042 69.4346 73.5042C83.0341 73.5042 94.0581 73.0772 94.0581 72.5506C94.0581 72.024 83.0341 71.5971 69.4346 71.5971C55.8351 71.5971 44.8111 72.024 44.8111 72.5506Z" fill="#3C5A73"/>
<path d="M53.0525 68.7639H85.8165V67.3366C85.8165 66.2359 84.9252 65.344 83.8245 65.344H55.0445C53.9444 65.344 53.0525 66.2359 53.0525 67.3366V68.7639Z" fill="#B48255"/>
<path d="M53.0525 68.7639H85.8165V67.3366H53.0525V68.7639Z" fill="#965028"/>
<path d="M50.7257 72.1837H88.1436V70.5893C88.1436 69.5812 87.3261 68.7638 86.3181 68.7638H52.5512C51.5432 68.7638 50.7257 69.5812 50.7257 70.5893V72.1837Z" fill="#B48255"/>
<path d="M50.7255 72.1838H88.1433V70.5894H50.7255V72.1838Z" fill="#965028"/>
<path d="M85.8165 24.2109H53.0525V25.6382C53.0525 26.7383 53.9438 27.6302 55.0445 27.6302H83.8245C84.9246 27.6302 85.8165 26.7383 85.8165 25.6382V24.2109Z" fill="#B48255"/>
<path d="M88.1432 20.7912H50.7254V22.3857C50.7254 23.3937 51.5428 24.2112 52.5514 24.2112H86.3183C87.3257 24.2112 88.1432 23.3937 88.1432 22.3857V20.7912Z" fill="#B48255"/>
<path d="M50.7257 22.3854V22.118H88.1436V22.3854C88.1436 23.3935 87.3261 24.2109 86.3181 24.2109H52.5512C51.5432 24.2109 50.7257 23.3935 50.7257 22.3854Z" fill="#965028"/>
<path d="M69.4348 46.4485C73.8651 46.4485 77.4569 42.8567 77.4569 38.4269V27.6305H61.4127V38.4269C61.4127 42.8567 65.0038 46.4485 69.4348 46.4485Z" fill="#6AB7FB"/>
<path d="M76.6835 28.5368V38.293C76.6835 42.2964 73.4383 45.5422 69.4348 45.5422C65.4314 45.5422 62.185 42.2964 62.185 38.293V28.5368H76.6835Z" fill="#B9E1F9"/>
<path d="M76.6835 37.6735V38.2933C76.6835 42.2968 73.4383 45.542 69.4348 45.542C65.4314 45.542 62.185 42.2968 62.185 38.2933V37.6735H76.6835Z" fill="#FAD72A"/>
<path d="M69.4348 46.4484C73.8651 46.4484 77.4569 50.0402 77.4569 54.4705V65.3444H61.4127V54.4705C61.4127 50.0402 65.0038 46.4484 69.4348 46.4484Z" fill="#6AB7FB"/>
<path d="M69.4347 47.3587C73.4381 47.3587 76.6833 50.6039 76.6833 54.6073V64.4344H62.1855V54.6073C62.1855 50.6039 65.4313 47.3587 69.4347 47.3587Z" fill="#B9E1F9"/>
<path d="M69.4347 55.0272C73.4381 55.0272 76.6833 56.8152 76.6833 59.0207V64.4344H62.1855V59.0207C62.1855 56.8152 65.4313 55.0272 69.4347 55.0272Z" fill="#FAD72A"/>
<path d="M81.2782 65.3439H83.5664V27.5525H81.2782V65.3439Z" fill="#B48255"/>
<path d="M68.9571 55.3217H69.9124V44.1458H68.9571V55.3217Z" fill="#FAD72A"/>
<path d="M74.4398 39.373C74.7729 39.373 75.0432 39.1033 75.0432 38.7702V30.1148C75.0432 29.7817 74.7729 29.5119 74.4398 29.5119C74.1073 29.5119 73.837 29.7817 73.837 30.1148V38.7702C73.837 39.1033 74.1073 39.373 74.4398 39.373Z" fill="#EEF9FF"/>
<path d="M74.4398 63.0598C74.7729 63.0598 75.0432 62.7901 75.0432 62.457V56.7359C75.0432 56.4029 74.7729 56.1331 74.4398 56.1331C74.1073 56.1331 73.837 56.4029 73.837 56.7359V62.457C73.837 62.7901 74.1073 63.0598 74.4398 63.0598Z" fill="#EEF9FF"/>
<path d="M74.4398 54.4762C74.7729 54.4762 75.0432 54.2064 75.0432 53.8728V53.2406C75.0432 52.9075 74.7729 52.6378 74.4398 52.6378C74.1073 52.6378 73.837 52.9075 73.837 53.2406V53.8728C73.837 54.2064 74.1073 54.4762 74.4398 54.4762Z" fill="#EEF9FF"/>
<path d="M80.0783 60.1225C80.0783 61.4173 81.1274 62.4664 82.4222 62.4664C83.717 62.4664 84.7661 61.4173 84.7661 60.1225C84.7661 58.8277 83.717 57.7781 82.4222 57.7781C81.1274 57.7781 80.0783 58.8277 80.0783 60.1225Z" fill="#B48255"/>
<path d="M83.5664 35.5158C83.2269 35.7076 82.8404 35.826 82.4223 35.826C82.0042 35.826 81.6178 35.7076 81.2782 35.5158V31.4479C81.6178 31.2561 82.0042 31.1383 82.4223 31.1383C82.8404 31.1383 83.2269 31.2561 83.5664 31.4479V35.5158Z" fill="#965028"/>
<path d="M83.5664 28.8815H81.2782V25.9207H83.5664V28.8815Z" fill="#965028"/>
<path d="M80.0783 32.234C80.0783 33.5288 81.1274 34.5785 82.4222 34.5785C83.717 34.5785 84.7661 33.5288 84.7661 32.234C84.7661 30.9398 83.717 29.8901 82.4222 29.8901C81.1274 29.8901 80.0783 30.9398 80.0783 32.234Z" fill="#B48255"/>
<path d="M80.0783 46.1784C80.0783 47.4732 81.1274 48.5223 82.4222 48.5223C83.717 48.5223 84.7661 47.4732 84.7661 46.1784C84.7661 44.8836 83.717 43.834 82.4222 43.834C81.1274 43.834 80.0783 44.8836 80.0783 46.1784Z" fill="#B48255"/>
<path d="M55.3025 65.3439H57.5913V27.5525H55.3025V65.3439Z" fill="#B48255"/>
<path d="M54.1026 60.1225C54.1026 61.4173 55.1523 62.4664 56.4465 62.4664C57.7413 62.4664 58.7904 61.4173 58.7904 60.1225C58.7904 58.8277 57.7413 57.7781 56.4465 57.7781C55.1523 57.7781 54.1026 58.8277 54.1026 60.1225Z" fill="#B48255"/>
<path d="M57.5913 35.5158C57.2512 35.7076 56.8647 35.826 56.4466 35.826C56.0291 35.826 55.6421 35.7076 55.3025 35.5158V31.4479C55.6421 31.2561 56.0291 31.1383 56.4466 31.1383C56.8647 31.1383 57.2512 31.2561 57.5913 31.4479V35.5158Z" fill="#965028"/>
<path d="M57.5913 28.8815H55.3025V25.9207H57.5913V28.8815Z" fill="#965028"/>
<path d="M54.1026 32.234C54.1026 33.5288 55.1523 34.5785 56.4465 34.5785C57.7413 34.5785 58.7904 33.5288 58.7904 32.234C58.7904 30.9398 57.7413 29.8901 56.4465 29.8901C55.1523 29.8901 54.1026 30.9398 54.1026 32.234Z" fill="#B48255"/>
<path d="M54.1026 46.1784C54.1026 47.4732 55.1523 48.5223 56.4465 48.5223C57.7413 48.5223 58.7904 47.4732 58.7904 46.1784C58.7904 44.8836 57.7413 43.834 56.4465 43.834C55.1523 43.834 54.1026 44.8836 54.1026 46.1784Z" fill="#B48255"/>
</svg>
